<svg width="30" height="25" viewBox="0 0 30 25" fill="none" xmlns="http://www.w3.org/2000/svg">
<path d="M27.1894 3.15132L27.1911 3.1531C29.4853 5.70363 29.1848 9.79139 26.6525 12.3371C26.6523 12.3373 26.652 12.3376 26.6518 12.3378L15.0365 23.9531C15.0362 23.9534 15.0359 23.9537 15.0356 23.954C15.0054 23.9835 14.9648 24 14.9225 24C14.8802 24 14.8396 23.9835 14.8094 23.954C14.8091 23.9537 14.8088 23.9534 14.8085 23.9531L2.89043 12.035C2.26969 11.4138 1.78212 10.6726 1.45751 9.8566C1.1329 9.04061 0.978081 8.167 1.0025 7.28916C1.02691 6.41131 1.23006 5.54766 1.59952 4.75097C1.96898 3.95429 2.497 3.24129 3.15132 2.65556L3.15132 2.65556L3.1531 2.65396C5.70316 0.360123 9.7899 0.660136 12.3357 3.19109L14.2127 5.08245C14.4004 5.27157 14.6558 5.37797 14.9222 5.37804C15.1887 5.3781 15.4441 5.27184 15.6319 5.08282L17.81 2.89043C17.8104 2.89 17.8108 2.88957 17.8113 2.88914C18.4322 2.26901 19.173 1.78189 19.9884 1.45751C20.8044 1.1329 21.678 0.978081 22.5559 1.0025C23.4337 1.02691 24.2973 1.23006 25.094 1.59952C25.8907 1.96898 26.6037 2.497 27.1894 3.15132Z" stroke="#4DB7BE" stroke-width="2" stroke-linecap="round" stroke-linejoin="round"/>
</svg>
