<svg width="37" height="16" viewBox="0 0 37 16" fill="none" xmlns="http://www.w3.org/2000/svg">
<path d="M2 7.375C1.65482 7.375 1.375 7.65482 1.375 8C1.375 8.34518 1.65482 8.625 2 8.625V7.375ZM37 8L30.75 4.39156V11.6084L37 8ZM4.91667 8.625C5.26184 8.625 5.54167 8.34518 5.54167 8C5.54167 7.65482 5.26184 7.375 4.91667 7.375V8.625ZM10.75 7.375C10.4048 7.375 10.125 7.65482 10.125 8C10.125 8.34518 10.4048 8.625 10.75 8.625V7.375ZM16.5833 8.625C16.9285 8.625 17.2083 8.34518 17.2083 8C17.2083 7.65482 16.9285 7.375 16.5833 7.375V8.625ZM22.4167 7.375C22.0715 7.375 21.7917 7.65482 21.7917 8C21.7917 8.34518 22.0715 8.625 22.4167 8.625V7.375ZM28.25 8.625C28.5952 8.625 28.875 8.34518 28.875 8C28.875 7.65482 28.5952 7.375 28.25 7.375V8.625ZM34.0833 7.375C33.7382 7.375 33.4583 7.65482 33.4583 8C33.4583 8.34518 33.7382 8.625 34.0833 8.625V7.375ZM2 8.625H4.91667V7.375H2V8.625ZM10.75 8.625H16.5833V7.375H10.75V8.625ZM22.4167 8.625H28.25V7.375H22.4167V8.625ZM2 6.75C1.30964 6.75 0.75 7.30964 0.75 8C0.75 8.69036 1.30964 9.25 2 9.25V6.75ZM37 8L24.5 0.783122V15.2169L37 8ZM4.91667 9.25C5.60702 9.25 6.16667 8.69036 6.16667 8C6.16667 7.30964 5.60702 6.75 4.91667 6.75V9.25ZM10.75 6.75C10.0596 6.75 9.5 7.30964 9.5 8C9.5 8.69036 10.0596 9.25 10.75 9.25V6.75ZM16.5833 9.25C17.2737 9.25 17.8333 8.69036 17.8333 8C17.8333 7.30964 17.2737 6.75 16.5833 6.75V9.25ZM22.4167 6.75C21.7263 6.75 21.1667 7.30964 21.1667 8C21.1667 8.69036 21.7263 9.25 22.4167 9.25V6.75ZM28.25 9.25C28.9404 9.25 29.5 8.69036 29.5 8C29.5 7.30964 28.9404 6.75 28.25 6.75V9.25ZM34.0833 6.75C33.393 6.75 32.8333 7.30964 32.8333 8C32.8333 8.69036 33.393 9.25 34.0833 9.25V6.75ZM2 9.25H4.91667V6.75H2V9.25ZM10.75 9.25H16.5833V6.75H10.75V9.25ZM22.4167 9.25H28.25V6.75H22.4167V9.25Z" fill="white"/>
</svg>
