<?xml version="1.0" encoding="UTF-8"?>
<svg id="Layer_2" data-name="Layer 2" xmlns="http://www.w3.org/2000/svg" viewBox="0 0 154.76 225.21">
  <defs>
    <style>
      .cls-1 {
        fill: #00486d;
      }

      .cls-2 {
        fill: none;
        stroke: #fff;
        stroke-miterlimit: 10;
        stroke-width: 5px;
      }
    </style>
  </defs>
  <g id="Layer_1-2" data-name="Layer 1">
    <path class="cls-2" d="M113.26,141.97c-10.07,7.87-39.24,32.74-39.99,69.08-.1,4.76,.3,9.34,1.09,13.71"/>
    <path class="cls-2" d="M112.26,1.97c10.07,7.87,39.24,32.74,39.99,69.08,.78,38.09-30.16,64.24-39.99,71.92"/>
    <g>
      <path class="cls-1" d="M52.12,113.66c-3.68-1.91-4.21-3.56-2.37-7.45,1.66-3.51,3.4-6.98,4.96-10.54,.34-.77,.36-1.96,.01-2.72-2.36-5.22-4.86-10.39-7.3-15.57-.29-.61-.57-1.24-.78-1.88-.74-2.3,.12-4.33,2.2-5.23,1.93-.84,4.06-.09,5.14,2.03,1.76,3.46,3.38,6.99,5.07,10.49,.23,.48,.48,.96,.88,1.75,.48-.81,.84-1.35,1.12-1.93,1.62-3.32,3.2-6.66,4.83-9.98,.83-1.7,2.22-2.73,4.14-2.56,1.65,.14,3.05,1.05,3.38,2.73,.22,1.13,.15,2.53-.34,3.55-5.45,11.54-10.96,23.05-16.6,34.5-.58,1.18-2.13,1.89-3.24,2.82h-1.12Z"/>
      <path class="cls-1" d="M0,89.52c.9-.95,1.73-1.98,2.73-2.83,1.81-1.55,2.43-3.55,2.4-5.79-.04-3.4-.1-6.8-.27-10.2-.52-10,7.72-17.93,19.35-15.18,.9,.21,1.79,.49,2.64,.85,2.18,.92,3.1,2.65,2.49,4.52-.57,1.74-2.6,2.88-4.65,2.53-1.21-.21-2.4-.55-3.61-.78-4.14-.8-7.36,1.59-7.88,5.75-.16,1.25,.08,1.82,1.51,1.76,2.73-.1,5.46-.08,8.19,0,2.83,.08,4.61,1.69,4.61,4.03,0,2.45-1.83,4.1-4.73,4.14-3.03,.05-6.07,.01-9.23,.01-.19,2.14-.33,4.21-.57,6.27-.39,3.42-2.42,5.93-4.91,8.02C5.48,94.81,2.57,94.11,0,91.01c0-.5,0-.99,0-1.49Z"/>
      <path class="cls-1" d="M100.09,81.8c0,6.76-5.17,11.81-12.08,11.8-6.63,0-12-5.29-12.01-11.8,0-6.46,5.62-11.96,12.2-11.93,6.62,.03,11.89,5.32,11.88,11.93Zm-11.93-5.42c-3.33-.03-5.93,2.38-5.96,5.52-.03,3.1,2.57,5.68,5.8,5.75,3.2,.07,5.9-2.47,5.93-5.58,.03-3.2-2.46-5.66-5.77-5.69Z"/>
      <path class="cls-1" d="M32.87,70.41c0-3.58-.04-7.17,.01-10.75,.04-2.75,1.52-4.47,3.82-4.63,2.76-.19,4.53,1.65,4.55,4.83,.03,6.24,.07,12.49,0,18.73-.03,3.34,.67,6.28,3.13,8.78,1.8,1.83,1.75,3.86,.29,5.28-1.41,1.38-4.5,1.27-6.31-.36-3.48-3.11-5.44-6.98-5.53-11.69-.06-3.4-.01-6.8-.01-10.2,.02,0,.03,0,.05,0Z"/>
    </g>
  </g>
</svg>