<?xml version="1.0" encoding="UTF-8"?>
<svg id="Layer_2" data-name="Layer 2" xmlns="http://www.w3.org/2000/svg" viewBox="0 0 154.91 225.21">
  <defs>
    <style>
      .cls-1, .cls-2 {
        fill: #00486d;
      }

      .cls-3 {
        fill: none;
        stroke: #fff;
        stroke-width: 5px;
      }

      .cls-3, .cls-2 {
        stroke-miterlimit: 10;
      }

      .cls-2 {
        stroke: #00486d;
      }
    </style>
  </defs>
  <g id="Layer_1-2" data-name="Layer 1">
    <path class="cls-3" d="M113.41,141.97c-10.07,7.87-39.24,32.74-39.99,69.08-.1,4.76,.3,9.34,1.09,13.71"/>
    <path class="cls-3" d="M112.41,1.97c10.07,7.87,39.24,32.74,39.99,69.08,.78,38.09-30.16,64.24-39.99,71.92"/>
    <g>
      <path class="cls-1" d="M51.34,112.65c-2.63-1.29-3.19-2.66-1.35-6.55,1.65-3.5,3.39-6.97,4.95-10.51,.34-.77,.36-1.95,.01-2.72-2.35-5.21-4.85-10.37-7.29-15.54-.29-.61-.57-1.23-.78-1.87-.74-2.29,.12-4.32,2.2-5.22,1.93-.84,4.06-.09,5.13,2.03,1.75,3.45,3.38,6.97,5.06,10.47,.23,.48,.48,.95,.88,1.75,.47-.81,.84-1.35,1.12-1.92,1.62-3.32,3.2-6.65,4.82-9.96,.83-1.69,2.22-2.72,4.14-2.56,1.64,.14,3.05,1.04,3.37,2.72,.22,1.13,.15,2.52-.34,3.54-5.44,11.51-10.93,23-16.56,34.43-1.33,2.81-3.6,2.79-5.36,1.93Z"/>
      <path class="cls-1" d="M.21,89.3c.49-.54,1.55-1.48,2.85-2.67,1.75-1.61,2.42-3.54,2.4-5.78-.04-3.39-.1-6.79-.27-10.18-.52-9.98,7.7-17.9,19.31-15.15,.9,.21,1.79,.49,2.64,.85,2.17,.92,3.09,2.65,2.49,4.51-.56,1.74-2.6,2.87-4.64,2.52-1.21-.21-2.4-.55-3.61-.78-4.13-.8-7.35,1.58-7.87,5.74-.16,1.24,.08,1.81,1.51,1.76,2.72-.1,5.45-.08,8.17,0,2.83,.08,4.6,1.69,4.6,4.02,0,2.44-1.83,4.09-4.72,4.13-3.03,.05-6.06,.01-9.21,.01-.19,2.14-.33,4.2-.57,6.26-.39,3.41-4.29,7.48-4.9,8-2.6,2.18-4.1,3.17-6.93,.31-1.6-1.62-1.67-3.14-1.26-3.56Z"/>
      <path class="cls-1" d="M100.24,81.74c0,6.74-5.16,11.78-12.05,11.78-6.62,0-11.98-5.28-11.98-11.78,0-6.45,5.61-11.93,12.17-11.91,6.61,.03,11.86,5.3,11.86,11.91Zm-11.9-5.41c-3.32-.03-5.91,2.37-5.94,5.51-.03,3.1,2.56,5.67,5.78,5.73,3.19,.07,5.89-2.47,5.92-5.57,.03-3.19-2.46-5.65-5.76-5.67Z"/>
      <path class="cls-2" d="M100.22,81.74c0,6.74-5.16,11.78-12.05,11.78-6.62,0-11.98-5.28-11.98-11.78,0-6.45,5.61-11.93,12.17-11.91,3.21,.01,6.1,1.27,8.22,3.31,2.25,2.16,3.64,5.2,3.64,8.6Zm-11.91-4.89c-3.01-.02-5.36,2.15-5.39,4.99-.03,2.81,2.32,5.14,5.25,5.2,2.9,.06,5.34-2.24,5.37-5.05,.03-2.89-2.23-5.12-5.22-5.15Z"/>
      <path class="cls-1" d="M33.14,70.37c0-3.58-.04-7.15,.01-10.73,.04-2.75,1.52-4.46,3.81-4.62,2.76-.18,4.52,1.64,4.54,4.82,.03,6.23,.07,12.46,0,18.69-.03,3.33,.67,6.27,3.12,8.77,1.8,1.83,1.74,3.85,.29,5.27-1.4,1.38-4.49,1.26-6.3-.36-3.47-3.1-5.43-6.97-5.52-11.66-.06-3.39-.01-6.78-.01-10.18,.02,0,.03,0,.05,0Z"/>
    </g>
  </g>
</svg>