<?xml version="1.0" encoding="UTF-8"?>
<svg id="Layer_2" data-name="Layer 2" xmlns="http://www.w3.org/2000/svg" viewBox="0 0 217.52 236.19">
  <defs>
    <style>
      .cls-1 {
        fill: #00486d;
      }
    </style>
  </defs>
  <g id="Layer_1-2" data-name="Layer 1">
    <path class="cls-1" d="M216.67,210.72c-8.25-12.41-15.51-21.96-21.3-30.01-1.13-2.13-2.6-4.32-4.6-6.6-9.72-14.46-12.99-24.38-5.64-39.89,19.9-41.95,6.34-86.75-28.18-112.86C119.88-6.67,75.36-7.14,40.1,20.12,4.58,47.58-8.72,89.96,5.77,129.54c15.51,42.37,57.54,72.62,102,62.06,12.57-2.99,23.06-5.14,36.55,.55,18.98,8.01,28.99,25.31,28.99,25.31,5.4,9.34,6.36,17.4,12.34,18.64,.87,.18,3.81,.63,12.36-5.49,10.37-7.43,22.92-13.5,18.67-19.9Zm-80.69-107.62c.03,25.8-16.58,41.69-43.21,41.35-23.64-.3-43.72-20.61-43.03-43.53,.62-20.71,21.44-39.98,43.39-40.15,26.03-.2,42.82,16.39,42.85,42.34Z"/>
  </g>
</svg>