<?xml version="1.0" encoding="UTF-8"?>
<svg id="Layer_2" data-name="Layer 2" xmlns="http://www.w3.org/2000/svg" viewBox="0 0 228.19 224.34">
  <defs>
    <style>
      .cls-1 {
        fill: none;
      }

      .cls-2 {
        fill: #00486d;
      }

      .cls-3 {
        fill: #fff;
      }
    </style>
  </defs>
  <g id="Layer_1-2" data-name="Layer 1">
    <g>
      <path class="cls-1" d="M.57,85.31c.04-.27,.07-.53,.11-.8-.04,.27-.07,.53-.11,.8Z"/>
      <path class="cls-1" d="M2.86,71.3c.09-.33,.18-.65,.27-.98-.09,.33-.18,.65-.27,.98Z"/>
      <path class="cls-1" d="M.03,98.37c-.02-.26-.02-.53-.02-.79,0,.27,0,.53,.02,.79Z"/>
      <path class="cls-1" d="M3.63,68.5c.11-.39,.22-.77,.33-1.16-.11,.39-.22,.77-.33,1.16Z"/>
      <path class="cls-1" d="M.28,87.54c.03-.29,.07-.57,.1-.86-.04,.29-.07,.57-.1,.86Z"/>
      <path class="cls-1" d="M.02,91.16c0-.33,.02-.66,.03-.99-.02,.33-.03,.66-.03,.99Z"/>
      <path class="cls-1" d="M.02,97.25c0-.19,.01-.37,.02-.56,0,.19-.01,.37-.02,.56Z"/>
      <path class="cls-1" d="M.09,89.3c-.02,.19-.02,.39-.03,.58,.02-.4,.06-.8,.1-1.2-.02,.21-.05,.42-.07,.63Z"/>
      <path class="cls-1" d="M4.44,65.69c.12-.42,.25-.85,.38-1.27-.13,.42-.25,.85-.38,1.27Z"/>
      <path class="cls-1" d="M.97,82.6c.11-.73,.21-1.46,.31-2.2-.1,.73-.21,1.47-.31,2.2Z"/>
      <path class="cls-1" d="M41.13,16.48c.27-.17,.54-.34,.81-.5-.27,.16-.54,.33-.81,.5Z"/>
      <path class="cls-1" d="M43.09,15.3c.17-.1,.34-.21,.52-.32-.17,.11-.34,.21-.52,.32Z"/>
      <path class="cls-1" d="M56.67,8.19c1.33-.56,2.66-1.13,3.99-1.68-1.33,.55-2.66,1.12-3.99,1.68Z"/>
      <path class="cls-1" d="M39.39,17.63c.4-.29,.82-.57,1.24-.84-.42,.27-.84,.55-1.24,.84Z"/>
      <path class="cls-1" d="M8.68,54.29c.18-.4,.36-.8,.54-1.2-.18,.4-.36,.8-.54,1.2Z"/>
      <path class="cls-1" d="M9.51,52.44c.28-.61,.57-1.22,.87-1.82-.3,.6-.59,1.21-.87,1.82Z"/>
      <path class="cls-1" d="M7.84,56.24c.16-.38,.32-.75,.48-1.13-.16,.38-.32,.75-.48,1.13Z"/>
      <path class="cls-1" d="M5.38,62.53c-.09,.3-.18,.59-.27,.89,.51-1.7,1.11-3.37,1.8-5-.57,1.35-1.11,2.71-1.53,4.11Z"/>
      <path class="cls-1" d="M2.28,116.92c-.07-.34-.15-.69-.21-1.03,.07,.34,.14,.69,.21,1.03Z"/>
      <polygon class="cls-1" points="80.53 188.62 80.53 188.62 80.53 188.62 80.53 188.62"/>
      <path class="cls-1" d="M80.18,188.54s.05,.01,.08,.02c-.66-.16-1.31-.32-1.97-.48,.63,.15,1.26,.31,1.89,.46Z"/>
      <path class="cls-1" d="M113.47,187.42c-.31,.08-.63,.15-.95,.21,.32-.06,.63-.13,.95-.21Z"/>
      <path class="cls-1" d="M53.19,179.76c-.37-.18-.74-.36-1.11-.54,.37,.18,.74,.37,1.11,.54Z"/>
      <path class="cls-1" d="M49.23,177.81s.1,.05,.15,.07c-.79-.4-1.56-.84-2.33-1.28,.72,.42,1.44,.83,2.18,1.21Z"/>
      <path class="cls-1" d="M1.36,111.9c-.04-.28-.09-.55-.13-.83,.04,.28,.09,.55,.13,.83Z"/>
      <path class="cls-1" d="M115.58,186.83s-.03,0-.05,.01c.02,0,.03,0,.05-.01Z"/>
      <path class="cls-1" d="M114.48,187.15c-.23,.07-.46,.13-.7,.19,.23-.06,.47-.13,.7-.19Z"/>
      <path class="cls-1" d="M121.16,185.26c.08-.03,.15-.06,.23-.08-.15,.05-.3,.1-.45,.15,.07-.03,.15-.05,.22-.07Z"/>
      <path class="cls-1" d="M127.2,183.06c-.7,.26-1.4,.51-2.09,.76,.7-.26,1.4-.5,2.09-.76Z"/>
      <path class="cls-1" d="M152.22,19.02c.47,.4,.94,.81,1.42,1.2-.48-.39-.95-.79-1.42-1.2Z"/>
      <path class="cls-1" d="M1.8,114.46c-.06-.32-.12-.65-.18-.97,.06,.32,.12,.65,.18,.97Z"/>
      <path class="cls-1" d="M3.18,120.61c-.09-.32-.18-.63-.27-.95,.09,.32,.17,.63,.27,.95Z"/>
      <path class="cls-1" d="M2.62,118.53c.05,.23,.12,.45,.17,.67-.09-.35-.18-.71-.26-1.06,.03,.13,.05,.26,.08,.39Z"/>
      <path class="cls-1" d="M6.66,131.09c-.03-.08-.07-.17-.1-.25,.03,.08,.07,.17,.1,.25Z"/>
      <path class="cls-1" d="M5.95,129.1c-.04-.12-.08-.25-.12-.37,.04,.12,.08,.25,.12,.37Z"/>
      <path class="cls-1" d="M5.26,126.9c-.2-.64-.4-1.28-.61-1.92,.21,.64,.41,1.28,.61,1.92Z"/>
      <path class="cls-1" d="M42.76,174.06c-.48-.29-.96-.59-1.4-.93,.45,.34,.92,.64,1.4,.93Z"/>
      <path class="cls-1" d="M186.75,72.96s-.02-.08-.04-.13c.03,.1,.05,.2,.07,.3-.01-.06-.02-.11-.04-.17Z"/>
      <path class="cls-1" d="M187.84,79.55c.1,.79,.22,1.59,.33,2.38-.12-.79-.23-1.59-.33-2.38Z"/>
      <path class="cls-1" d="M44.28,174.96c.57,.34,1.13,.68,1.7,1.01-.56-.34-1.13-.67-1.69-1.01,0,0,0,0,0,0Z"/>
      <path class="cls-1" d="M185.45,68.61c.02,.07,.05,.15,.07,.22-.02-.07-.05-.15-.07-.22Z"/>
      <path class="cls-1" d="M186.05,70.52c.04,.15,.09,.29,.13,.44-.04-.15-.09-.29-.13-.44Z"/>
      <path class="cls-1" d="M223.65,199.74l-6.72,7.47s0,0,0,0c3.32-3.38,6.77-6.61,10.17-9.91,.28-.27,.49-.61,.77-.89,.49-.48,.39-.83-.1-1.26-1.9-1.68-3.78-3.38-5.64-5.11,.31,.29,.68,.64,1.08,1,2.5,2.29,2.7,6.17,.43,8.7Z"/>
      <path class="cls-1" d="M209.73,214.26l-9,8.8c3-2.93,6.05-5.82,9-8.8Z"/>
      <path class="cls-1" d="M188.79,86.84c0,.1,.01,.2,.02,.3,0-.1-.01-.2-.02-.3Z"/>
      <path class="cls-1" d="M188.49,84.2c.02,.14,.04,.28,.06,.43-.02-.14-.04-.28-.06-.43Z"/>
      <path class="cls-1" d="M.07,95.74c0,.11,0,.23,0,.34,0-.11,0-.23,0-.34Z"/>
      <path class="cls-1" d="M184.09,64.48c.21,.66,.43,1.32,.65,1.98-.22-.66-.44-1.32-.65-1.98Z"/>
      <path class="cls-1" d="M158.53,24.13c-.06-.05-.12-.1-.18-.16,.16,.14,.31,.28,.46,.43-.1-.09-.18-.18-.28-.27Z"/>
      <path class="cls-1" d="M161.43,26.93c.11,.11,.22,.23,.33,.34-.11-.11-.22-.23-.33-.34Z"/>
      <path class="cls-2" d="M209.73,214.26c.86-.87,1.71-1.74,2.54-2.63,1.48-1.58,3.16-2.88,4.66-4.41,0,0,0,0,0,0l6.72-7.47c2.27-2.52,2.07-6.41-.43-8.7-.4-.36-.77-.71-1.08-1-1.64-1.53-3.22-3.14-4.85-4.68-2.28-2.16-4.6-4.28-6.9-6.42-2.24-2.09-4.48-4.18-6.73-6.27-2.34-2.17-4.68-4.33-7.02-6.49-1.93-1.79-3.89-3.55-5.81-5.36-3.53-3.35-7.14-6.63-10.52-10.12-1.56-1.62-2.43-3.7-2.55-6.13-.18-3.87,1.39-7.16,2.81-10.56,1.12-2.67,1.98-5.45,2.97-8.18,.49-1.34,1.06-2.64,1.51-3.99,.46-1.39,.88-2.79,1.22-4.21,.47-1.94,.9-3.9,1.26-5.86,.39-2.17,.84-4.36,.95-6.55,.27-5.25,.52-10.5,.44-15.75-.01-.78-.06-1.55-.12-2.33,0-.1-.01-.2-.02-.3-.07-.74-.15-1.48-.25-2.22-.02-.14-.04-.28-.06-.43-.1-.76-.21-1.51-.32-2.27-.12-.79-.23-1.59-.33-2.38,0-.03,0-.05-.01-.08-.28-2.12-.51-4.27-1.03-6.34-.03-.1-.05-.2-.07-.3-.16-.63-.34-1.25-.53-1.87-.04-.15-.09-.29-.13-.44-.17-.56-.35-1.13-.54-1.69-.02-.07-.05-.15-.07-.22-.24-.72-.47-1.43-.71-2.15-.22-.66-.44-1.32-.65-1.98-.54-1.72-.99-3.47-1.61-5.16-.65-1.76-1.39-3.49-2.21-5.19-1.11-2.33-2.24-4.65-3.53-6.88-1.28-2.22-2.77-4.33-4.17-6.48-.99-1.52-1.93-3.09-3.03-4.54-.98-1.29-2.18-2.4-3.22-3.64-.7-.83-1.21-1.84-1.95-2.62-.86-.91-1.74-1.81-2.62-2.71-.11-.11-.22-.23-.33-.34-.86-.86-1.73-1.7-2.62-2.52-.15-.14-.31-.29-.46-.43-1.48-1.32-3.11-2.47-4.66-3.72-.02-.01-.03-.03-.05-.04-.48-.39-.95-.79-1.42-1.2-.44-.38-.88-.75-1.35-1.08-1.02-.73-2.13-1.32-3.19-2-1.62-1.04-3.17-2.18-4.84-3.12-1.86-1.05-3.8-1.96-5.73-2.86-2.45-1.15-4.89-2.34-7.41-3.32-2.44-.95-4.96-1.7-7.47-2.45-2.5-.74-5.02-1.41-7.55-2.04-1.23-.3-2.51-.4-3.76-.63-1.42-.26-2.84-.58-4.26-.87-.27-.06-.54-.16-.81-.17C100.39,.29,94.91-.02,89.44,0c-2.58,0-5.15,.68-7.74,1.01-1.5,.19-3.03,.19-4.51,.47-1.79,.34-3.55,.85-5.3,1.34-2.42,.67-4.84,1.35-7.23,2.11-1.36,.43-2.68,1.02-4,1.57-1.33,.55-2.66,1.12-3.99,1.68-.76,.32-1.52,.65-2.28,.96-3.57,1.46-6.9,3.37-10.14,5.44-.21,.14-.43,.26-.64,.4-.17,.11-.34,.21-.52,.32-.38,.23-.77,.46-1.15,.69-.27,.16-.54,.33-.81,.5-.17,.1-.34,.2-.5,.31-.42,.27-.84,.55-1.24,.84-1.94,1.42-3.67,3.11-5.63,4.5-3.68,2.6-6.85,5.75-9.92,9-1.5,1.59-2.77,3.4-4.16,5.1-.91,1.1-1.93,2.12-2.76,3.28-1.04,1.47-1.97,3.03-2.89,4.59-1.26,2.15-2.53,4.29-3.65,6.52-.3,.6-.59,1.21-.87,1.82-.1,.22-.2,.44-.3,.66-.18,.4-.36,.8-.54,1.2-.12,.27-.24,.54-.35,.82-.16,.38-.32,.75-.48,1.13-.18,.43-.36,.86-.55,1.28-.13,.3-.25,.6-.38,.9-.69,1.63-1.29,3.3-1.8,5-.1,.33-.2,.66-.3,1-.13,.42-.25,.85-.38,1.27-.16,.55-.32,1.1-.48,1.65-.11,.39-.22,.77-.33,1.16-.17,.61-.34,1.22-.5,1.83-.09,.33-.18,.65-.27,.98-.25,.93-.49,1.87-.72,2.8-.5,2.05-.58,4.2-.86,6.3-.1,.73-.21,1.47-.31,2.2-.09,.63-.19,1.27-.28,1.9-.04,.27-.07,.53-.11,.8-.06,.46-.13,.91-.19,1.37-.04,.29-.07,.57-.1,.86-.05,.38-.09,.76-.12,1.14-.04,.4-.07,.8-.1,1.2,0,.1-.01,.19-.01,.29-.02,.33-.03,.66-.03,.99-.01,1.45,.07,2.9,.06,4.35,0,.08,0,.15,0,.23,0,.11,0,.23,0,.34,0,.21-.02,.41-.03,.62,0,.19-.01,.37-.02,.56,0,.11,0,.21,0,.32,0,.27,0,.53,.02,.79,.24,3.44,.42,6.88,.86,10.3,.1,.81,.22,1.61,.34,2.41,.04,.28,.09,.55,.13,.83,.08,.53,.17,1.06,.26,1.58,.06,.32,.12,.65,.18,.97,.09,.48,.18,.95,.27,1.43,.07,.34,.14,.69,.21,1.03,.09,.41,.17,.82,.26,1.23,.08,.36,.17,.71,.26,1.06,.04,.15,.08,.3,.12,.45,.09,.32,.18,.63,.27,.95,.45,1.47,.98,2.91,1.46,4.37,0,0,0,0,0,0,.21,.64,.41,1.28,.61,1.92,.19,.61,.38,1.22,.58,1.83,.04,.12,.08,.25,.12,.37,.19,.59,.39,1.17,.61,1.75,.03,.08,.07,.17,.1,.25,.23,.6,.47,1.2,.75,1.78,1.87,3.97,4.04,7.81,6.18,11.65,.97,1.73,2.1,3.38,3.28,4.98,.81,1.11,1.86,2.05,2.74,3.11,.44,.54,.65,1.29,1.12,1.8,2.91,3.13,5.79,6.29,8.82,9.28,1.7,1.67,3.67,3.07,5.54,4.56,2.07,1.65,4.16,3.29,6.27,4.88,.45,.34,.92,.64,1.4,.93,.39,.23,.78,.46,1.17,.69,.12,.07,.24,.14,.35,.21,0,0,0,0,0,0,.56,.34,1.13,.67,1.69,1.01,.36,.21,.72,.42,1.07,.63,.77,.44,1.54,.87,2.33,1.28,.89,.46,1.8,.89,2.7,1.33,.37,.18,.74,.37,1.11,.54,1.28,.61,2.58,1.21,3.87,1.8,1.78,.81,3.57,1.6,5.41,2.26,1.73,.62,3.52,1.07,5.28,1.6,1.66,.5,3.31,1.06,4.99,1.5,1.11,.29,2.27,.4,3.4,.65,.72,.16,1.44,.33,2.16,.5,.66,.16,1.31,.32,1.97,.48,.09,.02,.18,.05,.27,.06,0,0,0,0,0,0,1.93,.19,3.86,.45,5.8,.56,3.38,.19,6.76,.39,10.14,.4,2.38,0,4.77-.2,7.14-.48,1.68-.2,3.33-.7,5-.99,1.29-.22,2.62-.25,3.91-.48,.32-.06,.63-.13,.95-.21,.1-.03,.21-.05,.31-.08,.23-.06,.47-.13,.7-.19,.35-.1,.7-.2,1.06-.3,.02,0,.03,0,.05-.01,0,0,0,0,.01,0,1.78-.49,3.59-.9,5.34-1.5,.15-.05,.3-.1,.45-.15,1.24-.44,2.48-.9,3.72-1.35,.7-.26,1.4-.5,2.09-.76,1.95-.73,3.89-1.47,5.82-2.24,3.16-1.26,6.36-2.08,9.8-2.17,3.37-.08,6.55,.53,9.17,2.56,2.52,1.95,4.75,4.29,6.99,6.57,5.69,5.78,11.3,11.65,16.99,17.44,3.41,3.47,6.89,6.86,10.38,10.25,1.84,1.78,3.8,3.43,5.64,5.21,.77,.74,1.51,1.49,2.26,2.25l.11,.1s0,0,0,0c3.09,2.36,5.33,.94,6.07,.31,.1-.1,.2-.19,.3-.28l9-8.8Zm-63.39-113.01c-.08,2.54-.82,5.07-1.28,7.6-.79,4.39-2.48,8.45-4.58,12.35-3.22,5.97-7.61,10.92-12.96,15.08-4.11,3.2-8.65,5.58-13.52,7.32-2.07,.74-4.27,1.14-6.39,1.74-5.99,1.69-12.13,1.6-18.25,1.39-2.66-.09-5.34-.68-7.93-1.36-3.2-.84-6.41-1.79-9.46-3.07-6.08-2.55-11.27-6.44-15.84-11.17-3.97-4.1-7.23-8.71-9.52-13.92-1.31-2.99-2.2-6.17-3.21-9.28-1.51-4.63-1.53-9.48-1.88-14.26-.18-2.53,.39-5.14,.74-7.69,.28-2.04,.71-4.05,1.16-6.06,.95-4.24,2.61-8.2,4.71-11.99,2.08-3.75,4.62-7.17,7.62-10.19,2.23-2.25,4.73-4.26,7.24-6.21,3.34-2.6,7.1-4.53,11.06-5.98,2.51-.92,5.11-1.62,7.7-2.35,4.36-1.23,8.83-1.52,13.34-1.57,3.01,.2,6.08,.16,9.03,.68,3.24,.58,6.46,1.49,9.55,2.62,2.71,.99,5.32,2.33,7.81,3.8,5.27,3.11,9.68,7.22,13.5,12,3.3,4.14,5.82,8.7,7.72,13.61,1.32,3.39,2.16,6.9,2.87,10.48,1.08,5.46,.95,10.95,.78,16.44Z"/>
      <path class="cls-3" d="M7.4,132.87c-.27-.58-.52-1.18-.75-1.78,.23,.6,.47,1.2,.75,1.78Z"/>
      <path class="cls-3" d="M158.35,23.97c-.14-.13-.27-.26-.41-.38-1.08-.96-2.2-1.87-3.39-2.69-.31-.21-.61-.45-.91-.68,.02,.01,.03,.03,.05,.04,1.55,1.24,3.18,2.39,4.66,3.72Z"/>
      <path class="cls-3" d="M6.56,130.84c-.21-.58-.41-1.16-.61-1.75,.19,.59,.39,1.17,.61,1.75Z"/>
      <path class="cls-3" d="M5.83,128.73c-.2-.61-.39-1.22-.58-1.83,.19,.61,.38,1.22,.58,1.83Z"/>
      <path class="cls-3" d="M7.84,56.24c-.3,.7-.59,1.39-.89,2.09-.01,.03-.02,.07-.04,.1,.13-.3,.25-.6,.38-.9,.18-.43,.36-.86,.55-1.28Z"/>
      <path class="cls-3" d="M54.39,9.15c.76-.31,1.52-.64,2.28-.96-.92,.39-1.84,.78-2.77,1.16-3.27,1.33-6.35,3.07-9.3,5.02-.32,.21-.65,.41-.98,.61,.21-.13,.43-.26,.64-.4,3.24-2.07,6.57-3.97,10.14-5.44Z"/>
      <path class="cls-3" d="M2.91,119.66c-.04-.15-.08-.3-.12-.45,.04,.15,.08,.3,.12,.45Z"/>
      <path class="cls-3" d="M.02,91.16c-.03,1.28-.01,2.57,.05,3.85,.01,.24,.01,.48,0,.73,0-.08,0-.15,0-.23,0-1.45-.08-2.9-.06-4.35Z"/>
      <path class="cls-3" d="M133.01,180.82c-1.93,.77-3.87,1.51-5.82,2.24,1.95-.73,3.89-1.47,5.82-2.24Z"/>
      <path class="cls-3" d="M3.18,120.61c.32,1.09,.68,2.18,1.07,3.25,.13,.37,.26,.75,.39,1.12,0,0,0,0,0,0-.48-1.45-1.01-2.9-1.46-4.37Z"/>
      <path class="cls-3" d="M78.29,188.08c-.72-.18-1.44-.35-2.16-.5,.72,.16,1.44,.33,2.16,.5Z"/>
      <path class="cls-3" d="M80.46,188.61s.04,0,.06,.01c-.09,0-.18-.04-.27-.06,.07,.02,.13,.03,.2,.05Z"/>
      <path class="cls-3" d="M186.36,215.46l7.9,7.46c-.74-.76-1.49-1.52-2.26-2.25-1.84-1.78-3.8-3.43-5.64-5.21Z"/>
      <path class="cls-3" d="M47.05,176.61c-.36-.21-.72-.42-1.07-.63,.36,.21,.71,.42,1.07,.63Z"/>
      <path class="cls-3" d="M200.71,223.09l.03-.03c-.1,.1-.2,.19-.3,.28,.18-.15,.27-.25,.27-.25Z"/>
      <path class="cls-3" d="M113.78,187.34c-.1,.03-.21,.05-.31,.08,.1-.03,.21-.05,.31-.08Z"/>
      <path class="cls-3" d="M115.53,186.85c-.35,.1-.7,.2-1.06,.3,.35-.1,.7-.2,1.06-.3Z"/>
      <path class="cls-3" d="M80.53,188.62c1.93,.19,3.86,.45,5.8,.56-1.94-.11-3.87-.37-5.8-.56,0,0,0,0,0,0Z"/>
      <path class="cls-3" d="M49.45,177.93c.87,.44,1.75,.87,2.63,1.29-.9-.44-1.81-.87-2.7-1.33,.02,.01,.05,.03,.07,.04Z"/>
      <path class="cls-3" d="M42.76,174.06c.5,.3,1.02,.6,1.52,.9-.12-.07-.23-.14-.35-.21-.39-.23-.78-.46-1.17-.69Z"/>
      <path class="cls-3" d="M150.88,17.94c.47,.34,.91,.71,1.35,1.08-.44-.38-.88-.75-1.35-1.08Z"/>
      <path class="cls-3" d="M121.55,185.12c1.19-.42,2.37-.86,3.55-1.3-1.24,.45-2.48,.91-3.72,1.35,.05-.02,.11-.04,.16-.06Z"/>
      <path class="cls-3" d="M57.06,181.56c-1.29-.59-2.58-1.19-3.87-1.8,1.28,.61,2.58,1.21,3.87,1.8Z"/>
      <path class="cls-3" d="M115.58,186.83c.34-.09,.68-.18,1.02-.25,1.47-.32,2.91-.76,4.33-1.25-1.74,.6-3.56,1.01-5.34,1.5,0,0,0,0-.01,0Z"/>
      <path class="cls-3" d="M3.96,67.34c.16-.55,.32-1.1,.48-1.65-.16,.55-.32,1.1-.48,1.65Z"/>
      <path class="cls-3" d="M5.1,63.48c-.09,.31-.18,.63-.28,.94,.1-.33,.2-.66,.3-1,0,.02-.01,.04-.02,.06Z"/>
      <path class="cls-3" d="M185.52,68.83c.18,.56,.36,1.12,.54,1.69-.17-.56-.35-1.13-.54-1.69Z"/>
      <path class="cls-3" d="M3.13,70.32c.17-.61,.33-1.22,.5-1.83-.17,.61-.34,1.22-.5,1.83Z"/>
      <path class="cls-3" d="M2.15,74.11c.23-.94,.47-1.87,.72-2.8-.25,.93-.49,1.87-.72,2.8Z"/>
      <path class="cls-3" d="M8.32,55.11c.12-.27,.23-.55,.35-.82-.12,.27-.24,.54-.35,.82Z"/>
      <path class="cls-3" d="M186.19,70.96c.19,.62,.37,1.25,.53,1.87-.16-.63-.34-1.25-.53-1.87Z"/>
      <path class="cls-3" d="M158.81,24.4c.89,.82,1.76,1.67,2.62,2.52-.86-.86-1.73-1.7-2.62-2.52Z"/>
      <path class="cls-3" d="M184.73,66.46c.24,.72,.48,1.43,.71,2.15-.24-.72-.47-1.43-.71-2.15Z"/>
      <path class="cls-3" d="M.69,84.51c.09-.63,.19-1.27,.28-1.9-.09,.63-.19,1.27-.28,1.9Z"/>
      <path class="cls-3" d="M40.63,16.79c.17-.11,.34-.21,.5-.31-.17,.1-.34,.2-.5,.31Z"/>
      <path class="cls-3" d="M41.95,15.98c.38-.23,.77-.46,1.15-.69-.38,.23-.77,.46-1.15,.69Z"/>
      <path class="cls-3" d="M161.76,27.27c.88,.89,1.76,1.8,2.62,2.71-.86-.91-1.74-1.81-2.62-2.71Z"/>
      <path class="cls-3" d="M9.21,53.09c.1-.22,.2-.44,.3-.66-.1,.22-.2,.44-.3,.66Z"/>
      <path class="cls-3" d="M.39,86.68c.06-.46,.12-.91,.19-1.37-.06,.46-.13,.91-.19,1.37Z"/>
      <path class="cls-3" d="M1.22,111.08c-.12-.8-.24-1.61-.34-2.41,.1,.81,.22,1.61,.34,2.41Z"/>
      <path class="cls-3" d="M188.81,87.14c.06,.78,.11,1.55,.12,2.33-.01-.78-.06-1.55-.12-2.33Z"/>
      <path class="cls-3" d="M212.27,211.63c-.83,.89-1.68,1.76-2.54,2.63l7.2-7.04h0c-1.5,1.53-3.18,2.84-4.66,4.41Z"/>
      <path class="cls-3" d="M.01,97.57c0-.11,0-.21,0-.32,0,.11,0,.21,0,.32Z"/>
      <path class="cls-3" d="M187.84,79.55c-.06-.44-.11-.88-.16-1.32-.1-.93-.19-1.87-.36-2.79-.14-.78-.32-1.55-.52-2.31,.52,2.07,.76,4.21,1.03,6.34,0,.03,0,.05,.01,.08Z"/>
      <path class="cls-3" d="M2.07,115.89c-.09-.48-.18-.95-.27-1.43,.09,.48,.18,.95,.27,1.43Z"/>
      <path class="cls-3" d="M1.62,113.49c-.09-.53-.18-1.05-.26-1.58,.08,.53,.17,1.06,.26,1.58Z"/>
      <path class="cls-3" d="M.05,90.17c0-.1,0-.19,.01-.29,0,.1,0,.19-.01,.29Z"/>
      <path class="cls-3" d="M188.54,84.63c.1,.74,.18,1.48,.25,2.22-.07-.74-.15-1.48-.25-2.22Z"/>
      <path class="cls-3" d="M.19,88.31c-.01,.12-.02,.24-.03,.36,.04-.38,.08-.76,.12-1.14-.03,.26-.07,.52-.09,.78Z"/>
      <path class="cls-3" d="M2.5,117.99c.01,.05,.03,.1,.04,.15-.09-.41-.17-.82-.26-1.23,.07,.36,.14,.72,.22,1.07Z"/>
      <path class="cls-3" d="M188.17,81.93c.11,.76,.22,1.51,.32,2.27-.1-.76-.21-1.51-.32-2.27Z"/>
      <path class="cls-3" d="M.04,96.69c0-.21,.02-.41,.03-.62,0,.21-.02,.41-.03,.62Z"/>
    </g>
  </g>
</svg>